<?xml version="1.0" standalone="no"?>
<!DOCTYPE svg PUBLIC "-//W3C//DTD SVG 20010904//EN"
 "http://www.w3.org/TR/2001/REC-SVG-20010904/DTD/svg10.dtd">
<svg version="1.0" xmlns="http://www.w3.org/2000/svg"
 width="700.000000pt" height="700.000000pt" viewBox="0 0 700.000000 700.000000"
 preserveAspectRatio="xMidYMid meet">
<metadata>
Created by potrace 1.14, written by Peter Selinger 2001-2017
</metadata>
<g transform="translate(0.000000,700.000000) scale(0.100000,-0.100000)"
fill="#000000" stroke="none">
<path d="M0 3500 l0 -3500 3500 0 3500 0 0 3500 0 3500 -3500 0 -3500 0 0
-3500z m4126 1942 c202 -39 405 -117 533 -204 74 -52 179 -157 226 -228 146
-220 190 -516 119 -809 -23 -96 -104 -255 -168 -334 -151 -181 -382 -297 -681
-340 l-90 -13 69 -18 c184 -46 346 -146 455 -281 151 -186 223 -396 301 -870
74 -456 122 -618 231 -782 l21 -33 -315 0 -314 0 -22 73 c-38 129 -71 307
-106 582 -56 428 -88 563 -173 730 -35 69 -64 108 -122 165 -123 122 -243 179
-471 221 -105 20 -157 22 -671 26 l-558 5 0 -901 0 -901 -270 0 -270 0 0 1970
0 1971 1083 -4 c1056 -3 1085 -4 1193 -25z"/>
<path d="M2390 4390 l0 -630 608 0 c669 0 830 7 975 44 322 82 508 312 507
628 -1 281 -158 475 -445 548 -128 33 -307 40 -992 40 l-653 0 0 -630z"/>
</g>
</svg>
